# xmcd
#
# Track frame offsets:
#	150
#	5866
#	23968
#	41467
#	65234
#	84331
#	104357
#	124543
#	150013
#	165047
#	187967
#
# Disc length: 2792 seconds
#
# Revision: 0
# Processed by: cddbd v1.5.2PL0 Copyright (c) Steve Scherf et al.
# Submitted via: EasyCDDAExtractor 11.5.3.1
#
DISCID=770ae60b
DTITLE=Arcanum
DYEAR=1900
DGENRE=Death Metal
TTITLE0=Prologue
TTITLE1=Chaos Arise
TTITLE2=One Bullet Left
TTITLE3=Behind The Paradise
TTITLE4=Urkraft
TTITLE5=Legio Astartes
TTITLE6=Cerberus
TTITLE7=Dunelord
TTITLE8=Damien's Torture
TTITLE9=Fimbul Winter
TTITLE10=Ragnarock
EXTD=
EXTT0=
EXTT1=
EXTT2=
EXTT3=
EXTT4=
EXTT5=
EXTT6=
EXTT7=
EXTT8=
EXTT9=
EXTT10=
PLAYORDER=
